<svg width="72" height="35" viewBox="0 0 72 35" fill="none" xmlns="http://www.w3.org/2000/svg">
<path d="M16.9485 17.3354L28.5162 10.6427C29.163 10.2676 29.7297 9.76852 30.1841 9.17383C30.6385 8.57915 30.9716 7.90055 31.1644 7.17679C31.3572 6.45303 31.406 5.69828 31.3079 4.95563C31.2098 4.21298 30.9668 3.49697 30.5927 2.84849C30.2186 2.2 29.7208 1.63175 29.1277 1.17616C28.5346 0.720576 27.8578 0.386584 27.136 0.193253C25.6782 -0.197197 24.1254 0.0090039 22.8192 0.766493L2.84375 12.3272L16.9485 17.3354Z" fill="#EA4335"/>
<path d="M25.6573 34.532C26.9096 34.5333 28.1273 34.1203 29.1217 33.3571C30.116 32.5939 30.8315 31.5231 31.1571 30.3107C31.4827 29.0983 31.4003 27.8121 30.9227 26.6514C30.4451 25.4907 29.5988 24.5205 28.5153 23.8911L8.53226 12.3265C7.22608 11.5701 5.67369 11.3648 4.21659 11.756C2.75948 12.1471 1.51703 13.1027 0.762563 14.4123C0.00809201 15.722 -0.196599 17.2785 0.193519 18.7395C0.583637 20.2005 1.53661 21.4463 2.84279 22.2028L22.8145 33.7635C23.6779 34.2665 24.6587 34.5316 25.6573 34.532Z" fill="#4285F4"/>
<path d="M45.5246 34.5328C46.5209 34.5352 47.5002 34.2741 48.3636 33.7757L68.3353 22.215L54.4118 17.097L42.6742 23.8919C41.5893 24.5201 40.7415 25.4898 40.2625 26.6505C39.7834 27.8112 39.6998 29.098 40.0247 30.3112C40.3496 31.5244 41.0647 32.5961 42.0592 33.3601C43.0536 34.1242 44.2718 34.5377 45.5246 34.5366V34.5328Z" fill="#FBBC04"/>
<path d="M65.4836 22.968C66.7368 22.9708 67.9558 22.5583 68.9511 21.7948C69.9464 21.0313 70.6622 19.9594 70.9873 18.7459C71.3124 17.5324 71.2285 16.2452 70.7486 15.0844C70.2688 13.9236 69.42 12.9543 68.334 12.3271L48.3623 0.766368C47.0562 0.00988309 45.5038 -0.195354 44.0467 0.195805C42.5896 0.586965 41.3471 1.54248 40.5926 2.85215C39.8382 4.16181 39.6335 5.71836 40.0236 7.17935C40.4137 8.64034 41.3667 9.8861 42.6729 10.6426L62.6445 22.2033C63.5073 22.7044 64.4866 22.9681 65.4836 22.968Z" fill="#0F9D58"/>
</svg>
