<svg width="177" height="41" viewBox="0 0 177 41" fill="none" xmlns="http://www.w3.org/2000/svg">
<path d="M23.8141 5.30186C23.8141 6.61746 23.4291 7.66556 22.659 8.44614C21.7938 9.37583 20.6561 9.84068 19.2458 9.84068C17.8961 9.84068 16.754 9.36706 15.8196 8.41983C14.8852 7.4726 14.418 6.3061 14.418 4.92034C14.418 3.53457 14.8852 2.36808 15.8196 1.42085C16.754 0.473616 17.8961 0 19.2458 0C19.9293 0 20.5739 0.122789 21.1795 0.368368C21.7852 0.613946 22.2827 0.960387 22.672 1.40769L21.8155 2.27599C21.5299 1.92516 21.1579 1.65327 20.6993 1.46031C20.2494 1.25859 19.7649 1.15773 19.2458 1.15773C18.2335 1.15773 17.377 1.51294 16.6761 2.22336C15.984 2.94256 15.6379 3.84155 15.6379 4.92034C15.6379 5.99913 15.984 6.89812 16.6761 7.61732C17.377 8.32774 18.2335 8.68295 19.2458 8.68295C20.1716 8.68295 20.9416 8.41983 21.5559 7.89359C22.1702 7.36735 22.5249 6.64377 22.6201 5.72285H19.2458V4.59144H23.7492C23.7924 4.83702 23.8141 5.07383 23.8141 5.30186Z" fill="white"/>
<path d="M24.6304 6.40697C24.6304 5.41588 24.9375 4.59582 25.5518 3.9468C26.1748 3.29777 26.9578 2.97325 27.9008 2.97325C28.8439 2.97325 29.6226 3.29777 30.2369 3.9468C30.8598 4.59582 31.1713 5.41588 31.1713 6.40697C31.1713 7.40682 30.8598 8.22688 30.2369 8.86713C29.6226 9.51616 28.8439 9.84068 27.9008 9.84068C26.9578 9.84068 26.1748 9.51616 25.5518 8.86713C24.9375 8.21811 24.6304 7.39805 24.6304 6.40697ZM25.8243 6.40697C25.8243 7.09985 26.0233 7.66117 26.4213 8.09093C26.8193 8.52069 27.3125 8.73557 27.9008 8.73557C28.4892 8.73557 28.9823 8.52069 29.3803 8.09093C29.7783 7.66117 29.9773 7.09985 29.9773 6.40697C29.9773 5.72285 29.7783 5.16592 29.3803 4.73616C28.9737 4.29762 28.4805 4.07836 27.9008 4.07836C27.3212 4.07836 26.828 4.29762 26.4213 4.73616C26.0233 5.16592 25.8243 5.72285 25.8243 6.40697Z" fill="white"/>
<path d="M31.8925 6.40697C31.8925 5.41588 32.1996 4.59582 32.8139 3.9468C33.4369 3.29777 34.2199 2.97325 35.163 2.97325C36.106 2.97325 36.8847 3.29777 37.499 3.9468C38.122 4.59582 38.4334 5.41588 38.4334 6.40697C38.4334 7.40682 38.122 8.22688 37.499 8.86713C36.8847 9.51616 36.106 9.84068 35.163 9.84068C34.2199 9.84068 33.4369 9.51616 32.8139 8.86713C32.1996 8.21811 31.8925 7.39805 31.8925 6.40697ZM33.0865 6.40697C33.0865 7.09985 33.2855 7.66117 33.6835 8.09093C34.0815 8.52069 34.5746 8.73557 35.163 8.73557C35.7513 8.73557 36.2445 8.52069 36.6425 8.09093C37.0405 7.66117 37.2395 7.09985 37.2395 6.40697C37.2395 5.72285 37.0405 5.16592 36.6425 4.73616C36.2358 4.29762 35.7426 4.07836 35.163 4.07836C34.5833 4.07836 34.0901 4.29762 33.6835 4.73616C33.2855 5.16592 33.0865 5.72285 33.0865 6.40697Z" fill="white"/>
<path d="M42.3732 8.73557C42.9615 8.73557 43.4417 8.52069 43.8137 8.09093C44.2031 7.66117 44.3978 7.09985 44.3978 6.40697C44.3978 5.73162 44.2031 5.17469 43.8137 4.73616C43.4331 4.29762 42.9529 4.07836 42.3732 4.07836C41.8021 4.07836 41.322 4.29762 40.9326 4.73616C40.5433 5.17469 40.3486 5.73162 40.3486 6.40697C40.3486 7.09108 40.5433 7.64801 40.9326 8.07778C41.322 8.51631 41.8021 8.73557 42.3732 8.73557ZM42.3342 12.6824C41.9795 12.6824 41.6464 12.6341 41.3349 12.5377C41.0235 12.4499 40.7379 12.3228 40.4784 12.1561C40.2275 11.9895 40.0112 11.7921 39.8295 11.5641C39.6478 11.3361 39.5094 11.0817 39.4142 10.8011L40.5433 10.3274C40.6731 10.7046 40.898 11.0072 41.2181 11.2352C41.5383 11.4632 41.9103 11.5773 42.3342 11.5773C42.9831 11.5773 43.4893 11.3799 43.8527 10.9852C44.2161 10.5906 44.3978 10.0468 44.3978 9.35391V8.73557H44.3458C44.1209 9.07763 43.8137 9.34952 43.4244 9.55125C43.0437 9.7442 42.6284 9.84068 42.1785 9.84068C41.3479 9.84068 40.6341 9.51178 40.0371 8.85398C39.4488 8.17864 39.1546 7.36297 39.1546 6.40697C39.1546 5.45096 39.4488 4.63968 40.0371 3.97311C40.6341 3.30654 41.3479 2.97325 42.1785 2.97325C42.6284 2.97325 43.0437 3.07412 43.4244 3.27584C43.8137 3.4688 44.1209 3.7363 44.3458 4.07836H44.3978V3.18375H45.5398V9.35391C45.5398 10.3888 45.25 11.2001 44.6703 11.7878C44.082 12.3842 43.3033 12.6824 42.3342 12.6824Z" fill="white"/>
<path d="M48.1896 0.210496V9.63018H46.9956V0.210496H48.1896Z" fill="white"/>
<path d="M52.4362 9.84068C51.5018 9.84068 50.7318 9.51616 50.1261 8.86713C49.5205 8.21811 49.2177 7.39805 49.2177 6.40697C49.2177 5.42465 49.5118 4.60898 50.1002 3.95995C50.6885 3.30215 51.4412 2.97325 52.3584 2.97325C53.3014 2.97325 54.0498 3.28461 54.6036 3.90733C55.1659 4.52127 55.4471 5.38518 55.4471 6.49906L55.4342 6.63062H50.4376C50.4549 7.2621 50.6626 7.7708 51.0606 8.15671C51.4585 8.54262 51.9344 8.73557 52.4881 8.73557C53.2495 8.73557 53.8465 8.34967 54.2791 7.57785L55.3433 8.10409C55.0578 8.64787 54.6598 9.07325 54.1493 9.38022C53.6475 9.68719 53.0765 9.84068 52.4362 9.84068ZM50.5285 5.63076H54.1753C54.1407 5.18346 53.959 4.81509 53.6302 4.52566C53.3101 4.22746 52.8775 4.07836 52.3324 4.07836C51.8825 4.07836 51.4932 4.21869 51.1644 4.49935C50.8443 4.78001 50.6323 5.15715 50.5285 5.63076Z" fill="white"/>
<path d="M59.5983 9.63018V0.210496H62.4405C63.8594 0.210496 64.9972 0.644644 65.8537 1.51294C66.7189 2.38123 67.1515 3.51703 67.1515 4.92034C67.1515 6.33241 66.7189 7.4726 65.8537 8.3409C64.9972 9.20042 63.8594 9.63018 62.4405 9.63018H59.5983ZM60.7923 1.36822V8.47246H62.4405C63.522 8.47246 64.3742 8.1611 64.9971 7.53838C65.6201 6.90689 65.9316 6.03421 65.9316 4.92034C65.9316 3.81524 65.6201 2.94694 64.9971 2.31545C64.3742 1.68397 63.522 1.36822 62.4405 1.36822H60.7923Z" fill="white"/>
<path d="M71.0288 9.84068C70.0944 9.84068 69.3243 9.51616 68.7187 8.86713C68.1131 8.21811 67.8102 7.39805 67.8102 6.40697C67.8102 5.42465 68.1044 4.60898 68.6927 3.95995C69.2811 3.30215 70.0338 2.97325 70.9509 2.97325C71.894 2.97325 72.6424 3.28461 73.1961 3.90733C73.7585 4.52127 74.0397 5.38518 74.0397 6.49906L74.0267 6.63062H69.0302C69.0475 7.2621 69.2551 7.7708 69.6531 8.15671C70.0511 8.54262 70.527 8.73557 71.0807 8.73557C71.8421 8.73557 72.4391 8.34967 72.8717 7.57785L73.9359 8.10409C73.6504 8.64787 73.2524 9.07325 72.7419 9.38022C72.2401 9.68719 71.669 9.84068 71.0288 9.84068ZM69.121 5.63076H72.7679C72.7332 5.18346 72.5516 4.81509 72.2228 4.52566C71.9027 4.22746 71.47 4.07836 70.925 4.07836C70.4751 4.07836 70.0857 4.21869 69.757 4.49935C69.4368 4.78001 69.2248 5.15715 69.121 5.63076Z" fill="white"/>
<path d="M78.0936 9.63018H76.8996L74.33 3.18375H75.6278L77.4966 8.18302H77.5226L79.4174 3.18375H80.6892L78.0936 9.63018Z" fill="white"/>
<path d="M84.1336 9.84068C83.1992 9.84068 82.4291 9.51616 81.8235 8.86713C81.2178 8.21811 80.915 7.39805 80.915 6.40697C80.915 5.42465 81.2092 4.60898 81.7975 3.95995C82.3859 3.30215 83.1386 2.97325 84.0557 2.97325C84.9988 2.97325 85.7472 3.28461 86.3009 3.90733C86.8633 4.52127 87.1445 5.38518 87.1445 6.49906L87.1315 6.63062H82.135C82.1523 7.2621 82.3599 7.7708 82.7579 8.15671C83.1559 8.54262 83.6318 8.73557 84.1855 8.73557C84.9469 8.73557 85.5439 8.34967 85.9765 7.57785L87.0407 8.10409C86.7551 8.64787 86.3571 9.07325 85.8467 9.38022C85.3449 9.68719 84.7738 9.84068 84.1336 9.84068ZM82.2258 5.63076H85.8726C85.838 5.18346 85.6563 4.81509 85.3276 4.52566C85.0074 4.22746 84.5748 4.07836 84.0297 4.07836C83.5798 4.07836 83.1905 4.21869 82.8617 4.49935C82.5416 4.78001 82.3296 5.15715 82.2258 5.63076Z" fill="white"/>
<path d="M89.4303 0.210496V9.63018H88.2364V0.210496H89.4303Z" fill="white"/>
<path d="M90.4584 6.40697C90.4584 5.41588 90.7656 4.59582 91.3799 3.9468C92.0028 3.29777 92.7858 2.97325 93.7289 2.97325C94.672 2.97325 95.4507 3.29777 96.065 3.9468C96.6879 4.59582 96.9994 5.41588 96.9994 6.40697C96.9994 7.40682 96.6879 8.22688 96.065 8.86713C95.4507 9.51616 94.672 9.84068 93.7289 9.84068C92.7858 9.84068 92.0028 9.51616 91.3799 8.86713C90.7656 8.21811 90.4584 7.39805 90.4584 6.40697ZM91.6524 6.40697C91.6524 7.09985 91.8514 7.66117 92.2494 8.09093C92.6474 8.52069 93.1406 8.73557 93.7289 8.73557C94.3172 8.73557 94.8104 8.52069 95.2084 8.09093C95.6064 7.66117 95.8054 7.09985 95.8054 6.40697C95.8054 5.72285 95.6064 5.16592 95.2084 4.73616C94.8018 4.29762 94.3086 4.07836 93.7289 4.07836C93.1492 4.07836 92.6561 4.29762 92.2494 4.73616C91.8514 5.16592 91.6524 5.72285 91.6524 6.40697Z" fill="white"/>
<path d="M101.135 8.73557C101.706 8.73557 102.187 8.51631 102.576 8.07778C102.965 7.64801 103.16 7.09108 103.16 6.40697C103.16 5.73162 102.965 5.17469 102.576 4.73616C102.187 4.29762 101.706 4.07836 101.135 4.07836C100.556 4.07836 100.071 4.29762 99.6818 4.73616C99.3011 5.17469 99.1107 5.73162 99.1107 6.40697C99.1107 7.09108 99.3011 7.6524 99.6818 8.09093C100.071 8.52069 100.556 8.73557 101.135 8.73557ZM101.33 9.84068C100.863 9.84068 100.435 9.73981 100.045 9.53809C99.6645 9.33636 99.3703 9.06886 99.1627 8.73557H99.1107L99.1627 9.63018V12.4719H97.9687V3.18375H99.1107V4.07836H99.1627C99.3703 3.74507 99.6645 3.47757 100.045 3.27584C100.435 3.07412 100.863 2.97325 101.33 2.97325C102.169 2.97325 102.879 3.30654 103.458 3.97311C104.055 4.64845 104.354 5.45973 104.354 6.40697C104.354 7.36297 104.055 8.17425 103.458 8.84082C102.879 9.50739 102.169 9.84068 101.33 9.84068Z" fill="white"/>
<path d="M108.303 9.84068C107.368 9.84068 106.598 9.51616 105.993 8.86713C105.387 8.21811 105.084 7.39805 105.084 6.40697C105.084 5.42465 105.378 4.60898 105.967 3.95995C106.555 3.30215 107.308 2.97325 108.225 2.97325C109.168 2.97325 109.916 3.28461 110.47 3.90733C111.032 4.52127 111.314 5.38518 111.314 6.49906L111.301 6.63062H106.304C106.321 7.2621 106.529 7.7708 106.927 8.15671C107.325 8.54262 107.801 8.73557 108.355 8.73557C109.116 8.73557 109.713 8.34967 110.146 7.57785L111.21 8.10409C110.924 8.64787 110.526 9.07325 110.016 9.38022C109.514 9.68719 108.943 9.84068 108.303 9.84068ZM106.395 5.63076H110.042C110.007 5.18346 109.825 4.81509 109.497 4.52566C109.176 4.22746 108.744 4.07836 108.199 4.07836C107.749 4.07836 107.36 4.21869 107.031 4.49935C106.711 4.78001 106.499 5.15715 106.395 5.63076Z" fill="white"/>
<path d="M113.599 9.63018H112.405V3.18375H113.548V4.23623H113.599C113.721 3.89417 113.967 3.60474 114.339 3.36793C114.72 3.12235 115.092 2.99957 115.455 2.99957C115.801 2.99957 116.096 3.05219 116.338 3.15744L115.974 4.32832C115.827 4.26692 115.594 4.23623 115.274 4.23623C114.824 4.23623 114.43 4.42041 114.093 4.78878C113.764 5.15715 113.599 5.58691 113.599 6.07807V9.63018Z" fill="white"/>
<path d="M128.868 5.30186C128.868 6.61746 128.483 7.66556 127.713 8.44614C126.848 9.37583 125.71 9.84068 124.299 9.84068C122.95 9.84068 121.808 9.36706 120.873 8.41983C119.939 7.4726 119.472 6.3061 119.472 4.92034C119.472 3.53457 119.939 2.36808 120.873 1.42085C121.808 0.473616 122.95 0 124.299 0C124.983 0 125.628 0.122789 126.233 0.368368C126.839 0.613946 127.336 0.960387 127.726 1.40769L126.869 2.27599C126.584 1.92516 126.212 1.65327 125.753 1.46031C125.303 1.25859 124.819 1.15773 124.299 1.15773C123.287 1.15773 122.431 1.51294 121.73 2.22336C121.038 2.94256 120.692 3.84155 120.692 4.92034C120.692 5.99913 121.038 6.89812 121.73 7.61732C122.431 8.32774 123.287 8.68295 124.299 8.68295C125.225 8.68295 125.995 8.41983 126.61 7.89359C127.224 7.36735 127.579 6.64377 127.674 5.72285H124.299V4.59144H128.803C128.846 4.83702 128.868 5.07383 128.868 5.30186Z" fill="white"/>
<path d="M131.051 9.63018H129.857V3.18375H130.999V4.23623H131.051C131.172 3.89417 131.419 3.60474 131.791 3.36793C132.172 3.12235 132.544 2.99957 132.907 2.99957C133.253 2.99957 133.547 3.05219 133.79 3.15744L133.426 4.32832C133.279 4.26692 133.046 4.23623 132.726 4.23623C132.276 4.23623 131.882 4.42041 131.544 4.78878C131.216 5.15715 131.051 5.58691 131.051 6.07807V9.63018Z" fill="white"/>
<path d="M133.816 6.40697C133.816 5.41588 134.123 4.59582 134.737 3.9468C135.36 3.29777 136.143 2.97325 137.086 2.97325C138.029 2.97325 138.808 3.29777 139.422 3.9468C140.045 4.59582 140.357 5.41588 140.357 6.40697C140.357 7.40682 140.045 8.22688 139.422 8.86713C138.808 9.51616 138.029 9.84068 137.086 9.84068C136.143 9.84068 135.36 9.51616 134.737 8.86713C134.123 8.21811 133.816 7.39805 133.816 6.40697ZM135.01 6.40697C135.01 7.09985 135.209 7.66117 135.607 8.09093C136.005 8.52069 136.498 8.73557 137.086 8.73557C137.675 8.73557 138.168 8.52069 138.566 8.09093C138.964 7.66117 139.163 7.09985 139.163 6.40697C139.163 5.72285 138.964 5.16592 138.566 4.73616C138.159 4.29762 137.666 4.07836 137.086 4.07836C136.507 4.07836 136.013 4.29762 135.607 4.73616C135.209 5.16592 135.01 5.72285 135.01 6.40697Z" fill="white"/>
<path d="M146.958 9.63018H145.816V8.73557H145.764C145.583 9.05132 145.302 9.31444 144.921 9.52493C144.549 9.73543 144.16 9.84068 143.753 9.84068C142.974 9.84068 142.373 9.61703 141.949 9.16972C141.534 8.71365 141.326 8.06901 141.326 7.23579V3.18375H142.52V7.15686C142.546 8.20934 143.069 8.73557 144.09 8.73557C144.566 8.73557 144.964 8.54262 145.284 8.15671C145.604 7.76203 145.764 7.2928 145.764 6.74902V3.18375H146.958V9.63018Z" fill="white"/>
<path d="M151.527 8.73557C152.098 8.73557 152.578 8.51631 152.967 8.07778C153.357 7.64801 153.551 7.09108 153.551 6.40697C153.551 5.73162 153.357 5.17469 152.967 4.73616C152.578 4.29762 152.098 4.07836 151.527 4.07836C150.947 4.07836 150.462 4.29762 150.073 4.73616C149.692 5.17469 149.502 5.73162 149.502 6.40697C149.502 7.09108 149.692 7.6524 150.073 8.09093C150.462 8.52069 150.947 8.73557 151.527 8.73557ZM151.721 9.84068C151.254 9.84068 150.826 9.73981 150.436 9.53809C150.056 9.33636 149.762 9.06886 149.554 8.73557H149.502L149.554 9.63018V12.4719H148.36V3.18375H149.502V4.07836H149.554C149.762 3.74507 150.056 3.47757 150.436 3.27584C150.826 3.07412 151.254 2.97325 151.721 2.97325C152.561 2.97325 153.27 3.30654 153.85 3.97311C154.447 4.64845 154.745 5.45973 154.745 6.40697C154.745 7.36297 154.447 8.17425 153.85 8.84082C153.27 9.50739 152.561 9.84068 151.721 9.84068Z" fill="white"/>
<path d="M160.642 7.84097C160.642 8.40229 160.4 8.87591 159.915 9.26181C159.431 9.64772 158.821 9.84068 158.085 9.84068C157.445 9.84068 156.883 9.67404 156.398 9.34075C155.914 8.99869 155.568 8.55139 155.36 7.99884L156.424 7.53838C156.58 7.92429 156.805 8.22688 157.099 8.44614C157.402 8.65664 157.731 8.76189 158.085 8.76189C158.466 8.76189 158.782 8.67857 159.033 8.51192C159.292 8.34528 159.422 8.14794 159.422 7.9199C159.422 7.50768 159.111 7.20509 158.488 7.01214L157.398 6.73587C156.16 6.42012 155.542 5.81495 155.542 4.92034C155.542 4.33271 155.775 3.86347 156.243 3.51265C156.718 3.15305 157.324 2.97325 158.06 2.97325C158.622 2.97325 159.128 3.1092 159.578 3.38109C160.037 3.65298 160.357 4.01696 160.538 4.47304L159.474 4.92034C159.353 4.64845 159.154 4.43795 158.877 4.28885C158.609 4.13098 158.306 4.05204 157.969 4.05204C157.657 4.05204 157.376 4.13098 157.125 4.28885C156.883 4.44672 156.762 4.63968 156.762 4.86771C156.762 5.23608 157.104 5.4992 157.787 5.65707L158.747 5.90704C160.011 6.22278 160.642 6.86742 160.642 7.84097Z" fill="white"/>
<path d="M19.1333 24.5972C18.6799 24.5972 18.2601 24.5136 17.8741 24.3466C17.4911 24.1765 17.1571 23.943 16.8722 23.646C16.5872 23.346 16.3651 22.9996 16.2058 22.6068C16.0465 22.214 15.9668 21.7918 15.9668 21.3402C15.9668 20.8886 16.0465 20.4664 16.2058 20.0736C16.3651 19.6808 16.5872 19.3359 16.8722 19.039C17.1571 18.739 17.4911 18.5054 17.8741 18.3384C18.2601 18.1683 18.6799 18.0833 19.1333 18.0833C19.5898 18.0833 20.0096 18.1683 20.3926 18.3384C20.7786 18.5054 21.1141 18.739 21.3991 19.039C21.684 19.3359 21.9046 19.6808 22.0609 20.0736C22.2202 20.4664 22.2999 20.8886 22.2999 21.3402C22.2999 21.7918 22.2202 22.214 22.0609 22.6068C21.9046 22.9996 21.684 23.346 21.3991 23.646C21.1141 23.943 20.7786 24.1765 20.3926 24.3466C20.0096 24.5136 19.5898 24.5972 19.1333 24.5972ZM19.1333 23.8919C19.5837 23.8919 19.9912 23.7852 20.3558 23.5718C20.7204 23.3553 21.0115 23.0537 21.229 22.6671C21.4496 22.2805 21.5599 21.8382 21.5599 21.3402C21.5599 20.836 21.4496 20.3922 21.229 20.0087C21.0115 19.6251 20.7204 19.3266 20.3558 19.1132C19.9912 18.8967 19.5837 18.7885 19.1333 18.7885C18.6921 18.7885 18.2877 18.8967 17.92 19.1132C17.5524 19.3266 17.2582 19.6251 17.0376 20.0087C16.8201 20.3922 16.7113 20.836 16.7113 21.3402C16.7113 21.8382 16.8201 22.2805 17.0376 22.6671C17.2582 23.0537 17.5524 23.3553 17.92 23.5718C18.2877 23.7852 18.6921 23.8919 19.1333 23.8919ZM23.188 24.458V20.0179H23.8866V20.6721H23.9234C24.0367 20.4556 24.2236 20.27 24.4841 20.1154C24.7476 19.9576 25.0356 19.8787 25.3481 19.8787C25.8873 19.8787 26.2933 20.0365 26.566 20.352C26.8387 20.6675 26.975 21.0866 26.975 21.6093V24.458H26.2443V21.7253C26.2443 21.2954 26.1416 20.9922 25.9364 20.8159C25.7311 20.6365 25.4676 20.5468 25.1459 20.5468C24.9038 20.5468 24.6909 20.6149 24.5071 20.751C24.3232 20.8871 24.1792 21.0634 24.075 21.2799C23.9739 21.4933 23.9234 21.7191 23.9234 21.9573V24.458H23.188ZM32.9032 24.5972C32.4498 24.5972 32.0285 24.5152 31.6394 24.3513C31.2503 24.1842 30.9102 23.9538 30.6191 23.66C30.3311 23.3661 30.1059 23.0213 29.9435 22.6254C29.7811 22.2264 29.6999 21.798 29.6999 21.3402C29.6999 20.8762 29.7811 20.4479 29.9435 20.0551C30.1059 19.6591 30.3311 19.3143 30.6191 19.0204C30.9102 18.7266 31.2503 18.4977 31.6394 18.3338C32.0285 18.1668 32.4498 18.0833 32.9032 18.0833C33.2188 18.0833 33.5129 18.125 33.7856 18.2085C34.0583 18.2889 34.3096 18.4049 34.5394 18.5565C34.7722 18.7049 34.9805 18.8874 35.1644 19.1039L34.6359 19.6143C34.4796 19.4225 34.3142 19.2663 34.1395 19.1457C33.9649 19.0251 33.7749 18.9354 33.5696 18.8766C33.3674 18.8178 33.1453 18.7885 32.9032 18.7885C32.459 18.7885 32.0499 18.8936 31.6761 19.1039C31.3024 19.3112 31.0036 19.605 30.78 19.9855C30.5563 20.3659 30.4445 20.8175 30.4445 21.3402C30.4445 21.8567 30.5563 22.3068 30.78 22.6903C31.0036 23.0738 31.3024 23.3708 31.6761 23.5811C32.0499 23.7883 32.459 23.8919 32.9032 23.8919C33.1729 23.8919 33.421 23.8548 33.6478 23.7806C33.8745 23.7033 34.0844 23.595 34.2774 23.4558C34.4704 23.3166 34.6481 23.1512 34.8105 22.9594L35.3436 23.4837C35.1659 23.6971 34.9514 23.8888 34.7002 24.059C34.452 24.226 34.1763 24.3574 33.873 24.4533C33.5696 24.5492 33.2464 24.5972 32.9032 24.5972ZM37.4821 24.5972C37.1543 24.5972 36.8663 24.5337 36.6181 24.4069C36.373 24.277 36.18 24.1007 36.039 23.878C35.8981 23.6553 35.8276 23.4017 35.8276 23.1171C35.8276 22.7924 35.9103 22.5186 36.0758 22.2959C36.2443 22.0702 36.4695 21.9016 36.7514 21.7902C37.0332 21.6758 37.3427 21.6186 37.6797 21.6186C37.8758 21.6186 38.0566 21.6356 38.222 21.6696C38.3906 21.7005 38.5361 21.7377 38.6586 21.781C38.7843 21.8243 38.8777 21.866 38.939 21.9062V21.6371C38.939 21.3 38.821 21.0324 38.5851 20.8345C38.3523 20.6365 38.0658 20.5376 37.7257 20.5376C37.4836 20.5376 37.2569 20.5917 37.0455 20.6999C36.8372 20.8082 36.6717 20.9582 36.5492 21.15L35.9977 20.7324C36.1141 20.5561 36.2581 20.4046 36.4297 20.2777C36.6043 20.1509 36.8019 20.0535 37.0225 19.9855C37.2431 19.9143 37.4775 19.8787 37.7257 19.8787C38.3231 19.8787 38.7904 20.038 39.1274 20.3566C39.4675 20.6752 39.6376 21.1051 39.6376 21.6464V24.458H38.939V23.8223H38.9068C38.8333 23.9492 38.726 24.0729 38.5851 24.1935C38.4472 24.311 38.2848 24.4069 38.0979 24.4812C37.9111 24.5585 37.7058 24.5972 37.4821 24.5972ZM37.551 23.943C37.8053 23.943 38.0367 23.8796 38.245 23.7528C38.4564 23.6259 38.6249 23.4558 38.7506 23.2424C38.8762 23.0259 38.939 22.7893 38.939 22.5326C38.8072 22.4398 38.6418 22.3655 38.4426 22.3099C38.2465 22.2511 38.0305 22.2217 37.7946 22.2217C37.3749 22.2217 37.0669 22.3083 36.8709 22.4815C36.6748 22.6547 36.5767 22.8697 36.5767 23.1264C36.5767 23.3708 36.6686 23.5687 36.8525 23.7203C37.0363 23.8687 37.2692 23.943 37.551 23.943ZM40.6564 24.458V20.0179H41.355V20.6721H41.3917C41.4714 20.5267 41.5817 20.3953 41.7226 20.2777C41.8636 20.1571 42.0244 20.0612 42.2052 19.9901C42.386 19.9159 42.5713 19.8787 42.7613 19.8787C43.0891 19.8787 43.371 19.9592 43.6069 20.12C43.8428 20.2777 44.0129 20.485 44.117 20.7417C44.2672 20.4912 44.4679 20.2855 44.7191 20.1246C44.9734 19.9607 45.2752 19.8787 45.6245 19.8787C46.1484 19.8787 46.5345 20.038 46.7826 20.3566C47.0308 20.6752 47.1549 21.0928 47.1549 21.6093V24.458H46.4288V21.7253C46.4288 21.2954 46.3414 20.9922 46.1668 20.8159C45.9952 20.6365 45.7516 20.5468 45.4361 20.5468C45.2124 20.5468 45.0117 20.6133 44.834 20.7463C44.6594 20.8762 44.5215 21.0479 44.4204 21.2613C44.3223 21.4717 44.2733 21.7005 44.2733 21.948V24.458H43.538V21.7299C43.538 21.3031 43.4522 21 43.2806 20.8206C43.109 20.6381 42.867 20.5468 42.5545 20.5468C42.3308 20.5468 42.1301 20.6149 41.9524 20.751C41.7778 20.884 41.6399 21.0572 41.5388 21.2706C41.4407 21.484 41.3917 21.716 41.3917 21.9665V24.458H40.6564ZM48.2045 26.337V20.0179H48.903V20.6767H48.9398C49.0195 20.5376 49.1328 20.4077 49.2799 20.287C49.427 20.1664 49.597 20.069 49.79 19.9947C49.9861 19.9174 50.2021 19.8787 50.438 19.8787C50.8425 19.8787 51.2025 19.9808 51.5181 20.185C51.8336 20.386 52.0833 20.6644 52.2672 21.0201C52.451 21.3727 52.5429 21.7779 52.5429 22.2356C52.5429 22.6965 52.451 23.1048 52.2672 23.4605C52.0833 23.8131 51.8336 24.0914 51.5181 24.2956C51.2025 24.4966 50.8425 24.5972 50.438 24.5972C50.0888 24.5972 49.7808 24.5167 49.5143 24.3559C49.2508 24.192 49.0593 24.0079 48.9398 23.8038H48.903L48.9398 24.4162V26.337H48.2045ZM50.3645 23.9291C50.6157 23.9291 50.8517 23.861 51.0723 23.7249C51.2959 23.5857 51.4752 23.3893 51.61 23.1357C51.7448 22.879 51.8122 22.579 51.8122 22.2356C51.8122 21.8892 51.7448 21.5892 51.61 21.3356C51.4752 21.0819 51.2959 20.8871 51.0723 20.751C50.8517 20.6149 50.6157 20.5468 50.3645 20.5468C50.1102 20.5468 49.8712 20.6149 49.6476 20.751C49.427 20.8871 49.2477 21.0819 49.1098 21.3356C48.972 21.5892 48.903 21.8892 48.903 22.2356C48.903 22.5851 48.972 22.8867 49.1098 23.1403C49.2477 23.3909 49.427 23.5857 49.6476 23.7249C49.8712 23.861 50.1102 23.9291 50.3645 23.9291ZM54.9491 24.5972C54.4099 24.5972 54.0039 24.4379 53.7313 24.1193C53.4586 23.8007 53.3222 23.3646 53.3222 22.8109V20.0179H54.053V22.6996C54.053 23.1388 54.1541 23.4543 54.3563 23.646C54.5585 23.8347 54.8082 23.9291 55.1054 23.9291C55.3658 23.9291 55.591 23.861 55.781 23.7249C55.971 23.5857 56.1165 23.4094 56.2176 23.196C56.3218 22.9795 56.3739 22.7553 56.3739 22.5233V20.0179H57.1092V24.458H56.4106V23.8131H56.3739C56.3003 23.9523 56.19 24.0822 56.043 24.2028C55.8959 24.3203 55.7289 24.4147 55.542 24.4858C55.3551 24.56 55.1575 24.5972 54.9491 24.5972ZM59.6857 24.5972C59.3578 24.5972 59.0683 24.5446 58.817 24.4394C58.5689 24.3312 58.3621 24.1858 58.1966 24.0033C58.0342 23.8177 57.9132 23.6182 57.8335 23.4048L58.4861 23.1079C58.6026 23.3739 58.7696 23.5795 58.9871 23.7249C59.2077 23.8703 59.4589 23.943 59.7408 23.943C60.0104 23.943 60.2356 23.8888 60.4164 23.7806C60.5972 23.6692 60.6875 23.5053 60.6875 23.2888C60.6875 23.1558 60.6492 23.0445 60.5727 22.9548C60.4991 22.8651 60.3903 22.7893 60.2463 22.7274C60.1023 22.6625 59.9277 22.6037 59.7224 22.5511L59.1847 22.4119C58.9794 22.3532 58.7849 22.2727 58.601 22.1707C58.4172 22.0655 58.2686 21.931 58.1552 21.767C58.0449 21.6 57.9898 21.3974 57.9898 21.1593C57.9898 20.8902 58.0664 20.6597 58.2196 20.468C58.3758 20.2762 58.5796 20.1308 58.8308 20.0319C59.0851 19.9298 59.3563 19.8787 59.6443 19.8787C59.8986 19.8787 60.136 19.9159 60.3566 19.9901C60.5772 20.0612 60.7703 20.1679 60.9357 20.3102C61.1042 20.4525 61.2314 20.6273 61.3172 20.8345L60.6784 21.1314C60.5711 20.9118 60.424 20.7587 60.2372 20.6721C60.0533 20.5824 59.8496 20.5376 59.6259 20.5376C59.3839 20.5376 59.174 20.5917 58.9963 20.6999C58.8186 20.8082 58.7297 20.9551 58.7297 21.1407C58.7297 21.3263 58.8033 21.4655 58.9503 21.5583C59.0974 21.651 59.2766 21.7268 59.488 21.7856L60.1269 21.948C60.5589 22.0593 60.8836 22.2248 61.1012 22.4444C61.3218 22.6609 61.4321 22.9254 61.4321 23.2378C61.4321 23.5161 61.3539 23.7574 61.1977 23.9615C61.0414 24.1657 60.83 24.3234 60.5635 24.4348C60.3 24.543 60.0074 24.5972 59.6857 24.5972Z" fill="#CCCCCC"/>
<path d="M65.3383 22.6208C65.1575 22.6208 64.9936 22.5759 64.8465 22.4862C64.7025 22.3965 64.5846 22.2774 64.4927 22.129C64.4038 21.9805 64.3594 21.8166 64.3594 21.6372C64.3594 21.4578 64.4038 21.2939 64.4927 21.1454C64.5846 20.9969 64.7025 20.8778 64.8465 20.7881C64.9936 20.6985 65.1575 20.6536 65.3383 20.6536C65.516 20.6536 65.6768 20.6985 65.8208 20.7881C65.9649 20.8778 66.0813 20.9969 66.1701 21.1454C66.259 21.2939 66.3034 21.4578 66.3034 21.6372C66.3034 21.8166 66.259 21.9805 66.1701 22.129C66.0813 22.2774 65.9649 22.3965 65.8208 22.4862C65.6768 22.5759 65.516 22.6208 65.3383 22.6208ZM69.6657 24.458V18.2225H71.7522C72.0985 18.2225 72.4171 18.3014 72.7082 18.4591C72.9992 18.6138 73.2321 18.8303 73.4067 19.1086C73.5814 19.3839 73.6687 19.704 73.6687 20.069C73.6687 20.2886 73.6289 20.5082 73.5492 20.7278C73.4695 20.9443 73.3439 21.1423 73.1723 21.3217C73.0038 21.5011 72.7878 21.6449 72.5243 21.7532C72.2639 21.8614 71.9529 21.9156 71.5914 21.9156H70.0564V21.2289H71.7109C71.9223 21.2289 72.1199 21.1794 72.3037 21.0804C72.4906 20.9815 72.6408 20.8454 72.7541 20.6722C72.8706 20.4959 72.9288 20.2948 72.9288 20.069C72.9288 19.8834 72.8813 19.704 72.7863 19.5308C72.6913 19.3545 72.5565 19.2107 72.3819 19.0994C72.2103 18.9849 72.0035 18.9277 71.7614 18.9277H70.4011V24.458H69.6657ZM71.1594 21.6001L71.959 21.5583L73.9123 24.4209V24.458H73.0483L71.1594 21.6001ZM75.9024 24.5972C75.5745 24.5972 75.2865 24.5338 75.0384 24.407C74.7933 24.2771 74.6002 24.1008 74.4593 23.8781C74.3184 23.6554 74.2479 23.4017 74.2479 23.1172C74.2479 22.7924 74.3306 22.5187 74.4961 22.296C74.6646 22.0702 74.8898 21.9016 75.1716 21.7903C75.4535 21.6758 75.763 21.6186 76.1 21.6186C76.2961 21.6186 76.4769 21.6356 76.6423 21.6697C76.8108 21.7006 76.9564 21.7377 77.0789 21.781C77.2045 21.8243 77.298 21.8661 77.3593 21.9063V21.6372C77.3593 21.3 77.2413 21.0325 77.0054 20.8345C76.7725 20.6366 76.4861 20.5376 76.146 20.5376C75.9039 20.5376 75.6772 20.5917 75.4658 20.7C75.2574 20.8083 75.092 20.9583 74.9694 21.15L74.4179 20.7325C74.5344 20.5562 74.6784 20.4046 74.8499 20.2778C75.0246 20.151 75.2222 20.0536 75.4428 19.9855C75.6634 19.9144 75.8978 19.8788 76.146 19.8788C76.7434 19.8788 77.2107 20.0381 77.5477 20.3567C77.8878 20.6753 78.0578 21.1052 78.0578 21.6465V24.458H77.3593V23.8224H77.3271C77.2536 23.9492 77.1463 24.0729 77.0054 24.1936C76.8675 24.3111 76.7051 24.407 76.5182 24.4812C76.3313 24.5585 76.126 24.5972 75.9024 24.5972ZM75.9713 23.943C76.2256 23.943 76.4569 23.8796 76.6653 23.7528C76.8767 23.626 77.0452 23.4559 77.1708 23.2425C77.2965 23.0259 77.3593 22.7893 77.3593 22.5326C77.2275 22.4398 77.0621 22.3656 76.8629 22.3099C76.6668 22.2511 76.4508 22.2218 76.2149 22.2218C75.7951 22.2218 75.4872 22.3084 75.2911 22.4816C75.095 22.6548 74.997 22.8698 74.997 23.1265C74.997 23.3708 75.0889 23.5688 75.2728 23.7203C75.4566 23.8688 75.6894 23.943 75.9713 23.943ZM79.0767 24.458V20.018H79.7752V20.6722H79.812C79.8917 20.5268 80.002 20.3953 80.1429 20.2778C80.2838 20.1572 80.4447 20.0613 80.6255 19.9901C80.8062 19.9159 80.9916 19.8788 81.1816 19.8788C81.5094 19.8788 81.7913 19.9592 82.0272 20.1201C82.2631 20.2778 82.4331 20.485 82.5373 20.7418C82.6875 20.4912 82.8881 20.2855 83.1394 20.1247C83.3937 19.9608 83.6955 19.8788 84.0448 19.8788C84.5687 19.8788 84.9547 20.0381 85.2029 20.3567C85.4511 20.6753 85.5752 21.0928 85.5752 21.6093V24.458H84.849V21.7253C84.849 21.2954 84.7617 20.9923 84.5871 20.816C84.4155 20.6366 84.1719 20.5469 83.8563 20.5469C83.6327 20.5469 83.432 20.6134 83.2543 20.7464C83.0796 20.8763 82.9418 21.048 82.8406 21.2614C82.7426 21.4717 82.6936 21.7006 82.6936 21.948V24.458H81.9582V21.73C81.9582 21.3031 81.8725 21 81.7009 20.8206C81.5293 20.6381 81.2873 20.5469 80.9747 20.5469C80.7511 20.5469 80.5504 20.6149 80.3727 20.751C80.198 20.884 80.0602 21.0572 79.9591 21.2707C79.861 21.4841 79.812 21.7161 79.812 21.9666V24.458H79.0767ZM88.4998 24.5972C88.1015 24.5972 87.7431 24.4967 87.4244 24.2956C87.1058 24.0915 86.8545 23.8131 86.6707 23.4605C86.4869 23.1048 86.3949 22.6965 86.3949 22.2357C86.3949 21.7779 86.4869 21.3727 86.6707 21.0201C86.8545 20.6644 87.1058 20.3861 87.4244 20.185C87.7431 19.9809 88.1015 19.8788 88.4998 19.8788C88.7358 19.8788 88.9502 19.9175 89.1433 19.9948C89.3393 20.069 89.5109 20.1665 89.658 20.2871C89.8051 20.4077 89.9184 20.5376 89.9981 20.6768H90.0348L89.9981 20.0597V18.2225H90.7334V24.458H90.0348V23.8038H89.9981C89.9184 23.9368 89.8051 24.0652 89.658 24.1889C89.5109 24.3096 89.3393 24.407 89.1433 24.4812C88.9502 24.5585 88.7358 24.5972 88.4998 24.5972ZM88.5734 23.9291C88.8277 23.9291 89.0651 23.8611 89.2857 23.725C89.5094 23.5858 89.6902 23.3909 89.828 23.1404C89.9659 22.8868 90.0348 22.5852 90.0348 22.2357C90.0348 21.8893 89.9659 21.5892 89.828 21.3356C89.6902 21.082 89.5094 20.8871 89.2857 20.751C89.0651 20.6149 88.8277 20.5469 88.5734 20.5469C88.3221 20.5469 88.0847 20.6149 87.861 20.751C87.6404 20.8871 87.4612 21.082 87.3233 21.3356C87.1854 21.5892 87.1165 21.8893 87.1165 22.2357C87.1165 22.579 87.1854 22.879 87.3233 23.1358C87.4612 23.3894 87.6404 23.5858 87.861 23.725C88.0847 23.8611 88.3221 23.9291 88.5734 23.9291ZM93.7325 24.5972C93.3066 24.5972 92.9282 24.4967 92.5973 24.2956C92.2695 24.0915 92.0121 23.8131 91.8252 23.4605C91.6383 23.1048 91.5449 22.6996 91.5449 22.245C91.5449 21.8212 91.6322 21.43 91.8068 21.0712C91.9815 20.7093 92.2281 20.4201 92.5468 20.2036C92.8654 19.9871 93.2407 19.8788 93.6728 19.8788C94.1109 19.8788 94.4862 19.9762 94.7987 20.1711C95.1112 20.3629 95.3518 20.6304 95.5203 20.9737C95.6919 21.3171 95.7776 21.7099 95.7776 22.1522C95.7776 22.1924 95.7761 22.2326 95.7731 22.2728C95.77 22.313 95.7654 22.347 95.7593 22.3749H91.9723V21.7671H95.0009C94.9948 21.6465 94.9672 21.515 94.9182 21.3727C94.8692 21.2305 94.7911 21.0975 94.6838 20.9737C94.5797 20.8469 94.4449 20.7448 94.2794 20.6675C94.117 20.5871 93.9148 20.5469 93.6728 20.5469C93.3847 20.5469 93.135 20.6211 92.9236 20.7696C92.7153 20.9181 92.5544 21.1206 92.4411 21.3774C92.3308 21.631 92.2756 21.9202 92.2756 22.245C92.2756 22.6223 92.3476 22.9363 92.4916 23.1868C92.6356 23.4373 92.821 23.6244 93.0477 23.7482C93.2744 23.8688 93.5119 23.9291 93.7601 23.9291C94.0818 23.9291 94.3468 23.8518 94.5552 23.6971C94.7666 23.5425 94.9351 23.3523 95.0607 23.1265L95.6857 23.4327C95.5111 23.7667 95.2629 24.0451 94.9412 24.2678C94.6195 24.4874 94.2166 24.5972 93.7325 24.5972ZM98.7012 24.5972C98.26 24.5972 97.8694 24.4936 97.5293 24.2864C97.1892 24.076 96.9226 23.793 96.7296 23.4373C96.5396 23.0785 96.4447 22.678 96.4447 22.2357C96.4447 21.7965 96.5396 21.399 96.7296 21.0433C96.9226 20.6845 97.1892 20.4015 97.5293 20.1943C97.8694 19.984 98.26 19.8788 98.7012 19.8788C99.1455 19.8788 99.5361 19.9855 99.8732 20.1989C100.213 20.4093 100.48 20.6938 100.673 21.0526C100.866 21.4083 100.962 21.8027 100.962 22.2357C100.962 22.678 100.866 23.0785 100.673 23.4373C100.48 23.793 100.213 24.076 99.8732 24.2864C99.5361 24.4936 99.1455 24.5972 98.7012 24.5972ZM98.7012 23.9291C98.9678 23.9291 99.2175 23.8626 99.4503 23.7296C99.6832 23.5935 99.8716 23.4002 100.016 23.1497C100.16 22.896 100.232 22.5914 100.232 22.2357C100.232 21.8831 100.16 21.5815 100.016 21.331C99.8716 21.0773 99.6832 20.884 99.4503 20.751C99.2175 20.6149 98.9678 20.5469 98.7012 20.5469C98.4377 20.5469 98.188 20.6149 97.9521 20.751C97.7162 20.884 97.5262 21.0773 97.3822 21.331C97.2382 21.5815 97.1662 21.8831 97.1662 22.2357C97.1662 22.5914 97.2382 22.896 97.3822 23.1497C97.5262 23.4002 97.7162 23.5935 97.9521 23.7296C98.188 23.8626 98.4377 23.9291 98.7012 23.9291ZM104.006 24.5972C103.77 24.5972 103.554 24.5585 103.358 24.4812C103.165 24.407 102.995 24.3096 102.848 24.1889C102.701 24.0652 102.588 23.9368 102.508 23.8038H102.471V24.458H101.773V18.2225H102.508V20.0597L102.471 20.6768H102.508C102.588 20.5376 102.701 20.4077 102.848 20.2871C102.995 20.1665 103.165 20.069 103.358 19.9948C103.554 19.9175 103.77 19.8788 104.006 19.8788C104.411 19.8788 104.771 19.9809 105.086 20.185C105.402 20.3861 105.652 20.6644 105.835 21.0201C106.019 21.3727 106.111 21.7779 106.111 22.2357C106.111 22.6965 106.019 23.1048 105.835 23.4605C105.652 23.8131 105.402 24.0915 105.086 24.2956C104.771 24.4967 104.411 24.5972 104.006 24.5972ZM103.933 23.9291C104.184 23.9291 104.42 23.8611 104.64 23.725C104.864 23.5858 105.043 23.3894 105.178 23.1358C105.313 22.879 105.38 22.579 105.38 22.2357C105.38 21.8893 105.313 21.5892 105.178 21.3356C105.043 21.082 104.864 20.8871 104.64 20.751C104.42 20.6149 104.184 20.5469 103.933 20.5469C103.678 20.5469 103.439 20.6149 103.216 20.751C102.995 20.8871 102.816 21.082 102.678 21.3356C102.54 21.5892 102.471 21.8893 102.471 22.2357C102.471 22.5852 102.54 22.8868 102.678 23.1404C102.816 23.3909 102.995 23.5858 103.216 23.725C103.439 23.8611 103.678 23.9291 103.933 23.9291ZM108.372 24.5972C108.044 24.5972 107.756 24.5338 107.508 24.407C107.263 24.2771 107.07 24.1008 106.929 23.8781C106.788 23.6554 106.718 23.4017 106.718 23.1172C106.718 22.7924 106.8 22.5187 106.966 22.296C107.134 22.0702 107.359 21.9016 107.641 21.7903C107.923 21.6758 108.233 21.6186 108.57 21.6186C108.766 21.6186 108.947 21.6356 109.112 21.6697C109.28 21.7006 109.426 21.7377 109.549 21.781C109.674 21.8243 109.768 21.8661 109.829 21.9063V21.6372C109.829 21.3 109.711 21.0325 109.475 20.8345C109.242 20.6366 108.956 20.5376 108.616 20.5376C108.374 20.5376 108.147 20.5917 107.935 20.7C107.727 20.8083 107.562 20.9583 107.439 21.15L106.888 20.7325C107.004 20.5562 107.148 20.4046 107.32 20.2778C107.494 20.151 107.692 20.0536 107.912 19.9855C108.133 19.9144 108.367 19.8788 108.616 19.8788C109.213 19.8788 109.68 20.0381 110.017 20.3567C110.357 20.6753 110.527 21.1052 110.527 21.6465V24.458H109.829V23.8224H109.797C109.723 23.9492 109.616 24.0729 109.475 24.1936C109.337 24.3111 109.175 24.407 108.988 24.4812C108.801 24.5585 108.596 24.5972 108.372 24.5972ZM108.441 23.943C108.695 23.943 108.927 23.8796 109.135 23.7528C109.346 23.626 109.515 23.4559 109.64 23.2425C109.766 23.0259 109.829 22.7893 109.829 22.5326C109.697 22.4398 109.532 22.3656 109.333 22.3099C109.136 22.2511 108.92 22.2218 108.685 22.2218C108.265 22.2218 107.957 22.3084 107.761 22.4816C107.565 22.6548 107.467 22.8698 107.467 23.1265C107.467 23.3708 107.559 23.5688 107.742 23.7203C107.926 23.8688 108.159 23.943 108.441 23.943ZM113.78 24.5972C113.544 24.5972 113.328 24.5585 113.132 24.4812C112.939 24.407 112.769 24.3096 112.622 24.1889C112.475 24.0652 112.361 23.9368 112.282 23.8038H112.245V24.458H111.546V18.2225H112.282V20.0597L112.245 20.6768H112.282C112.361 20.5376 112.475 20.4077 112.622 20.2871C112.769 20.1665 112.939 20.069 113.132 19.9948C113.328 19.9175 113.544 19.8788 113.78 19.8788C114.184 19.8788 114.544 19.9809 114.86 20.185C115.176 20.3861 115.425 20.6644 115.609 21.0201C115.793 21.3727 115.885 21.7779 115.885 22.2357C115.885 22.6965 115.793 23.1048 115.609 23.4605C115.425 23.8131 115.176 24.0915 114.86 24.2956C114.544 24.4967 114.184 24.5972 113.78 24.5972ZM113.706 23.9291C113.958 23.9291 114.194 23.8611 114.414 23.725C114.638 23.5858 114.817 23.3894 114.952 23.1358C115.087 22.879 115.154 22.579 115.154 22.2357C115.154 21.8893 115.087 21.5892 114.952 21.3356C114.817 21.082 114.638 20.8871 114.414 20.751C114.194 20.6149 113.958 20.5469 113.706 20.5469C113.452 20.5469 113.213 20.6149 112.989 20.751C112.769 20.8871 112.59 21.082 112.452 21.3356C112.314 21.5892 112.245 21.8893 112.245 22.2357C112.245 22.5852 112.314 22.8868 112.452 23.1404C112.59 23.3909 112.769 23.5858 112.989 23.725C113.213 23.8611 113.452 23.9291 113.706 23.9291ZM118.146 24.5972C117.818 24.5972 117.53 24.5338 117.282 24.407C117.037 24.2771 116.844 24.1008 116.703 23.8781C116.562 23.6554 116.491 23.4017 116.491 23.1172C116.491 22.7924 116.574 22.5187 116.739 22.296C116.908 22.0702 117.133 21.9016 117.415 21.7903C117.697 21.6758 118.006 21.6186 118.343 21.6186C118.539 21.6186 118.72 21.6356 118.886 21.6697C119.054 21.7006 119.2 21.7377 119.322 21.781C119.448 21.8243 119.541 21.8661 119.603 21.9063V21.6372C119.603 21.3 119.485 21.0325 119.249 20.8345C119.016 20.6366 118.729 20.5376 118.389 20.5376C118.147 20.5376 117.921 20.5917 117.709 20.7C117.501 20.8083 117.335 20.9583 117.213 21.15L116.661 20.7325C116.778 20.5562 116.922 20.4046 117.093 20.2778C117.268 20.151 117.466 20.0536 117.686 19.9855C117.907 19.9144 118.141 19.8788 118.389 19.8788C118.987 19.8788 119.454 20.0381 119.791 20.3567C120.131 20.6753 120.301 21.1052 120.301 21.6465V24.458H119.603V23.8224H119.57C119.497 23.9492 119.39 24.0729 119.249 24.1936C119.111 24.3111 118.948 24.407 118.762 24.4812C118.575 24.5585 118.369 24.5972 118.146 24.5972ZM118.215 23.943C118.469 23.943 118.7 23.8796 118.909 23.7528C119.12 23.626 119.289 23.4559 119.414 23.2425C119.54 23.0259 119.603 22.7893 119.603 22.5326C119.471 22.4398 119.305 22.3656 119.106 22.3099C118.91 22.2511 118.694 22.2218 118.458 22.2218C118.038 22.2218 117.731 22.3084 117.534 22.4816C117.338 22.6548 117.24 22.8698 117.24 23.1265C117.24 23.3708 117.332 23.5688 117.516 23.7203C117.7 23.8688 117.933 23.943 118.215 23.943ZM125.419 24.5972C124.969 24.5972 124.573 24.4951 124.233 24.291C123.896 24.0838 123.631 23.7961 123.438 23.428C123.245 23.0569 123.149 22.6316 123.149 22.1522V18.2225H123.884V22.1846C123.884 22.5094 123.941 22.8017 124.054 23.0615C124.171 23.3182 124.342 23.5208 124.569 23.6693C124.796 23.8178 125.079 23.892 125.419 23.892C125.759 23.892 126.044 23.8178 126.274 23.6693C126.504 23.5208 126.675 23.3182 126.789 23.0615C126.905 22.8017 126.963 22.5094 126.963 22.1846V18.2225H127.694V22.1522C127.694 22.6316 127.604 23.0569 127.423 23.428C127.242 23.7961 126.982 24.0838 126.642 24.291C126.305 24.4951 125.897 24.5972 125.419 24.5972ZM128.782 24.458V20.018H129.48V20.6722H129.517C129.63 20.4556 129.817 20.2701 130.078 20.1154C130.341 19.9577 130.629 19.8788 130.942 19.8788C131.481 19.8788 131.887 20.0365 132.16 20.352C132.432 20.6675 132.569 21.0866 132.569 21.6093V24.458H131.838V21.7253C131.838 21.2954 131.735 20.9923 131.53 20.816C131.325 20.6366 131.061 20.5469 130.74 20.5469C130.498 20.5469 130.285 20.6149 130.101 20.751C129.917 20.8871 129.773 21.0634 129.669 21.2799C129.568 21.4934 129.517 21.7191 129.517 21.9573V24.458H128.782ZM133.69 24.458V20.018H134.425V24.458H133.69ZM134.053 19.1968C133.909 19.1968 133.785 19.1458 133.681 19.0437C133.58 18.9385 133.529 18.8133 133.529 18.6679C133.529 18.5163 133.58 18.3895 133.681 18.2874C133.785 18.1854 133.909 18.1343 134.053 18.1343C134.203 18.1343 134.329 18.1854 134.43 18.2874C134.531 18.3895 134.582 18.5163 134.582 18.6679C134.582 18.8133 134.531 18.9385 134.43 19.0437C134.329 19.1458 134.203 19.1968 134.053 19.1968ZM136.867 24.458L135.088 20.018H135.874L137.239 23.5858H137.253L138.636 20.018H139.404L137.607 24.458H136.867ZM141.833 24.5972C141.407 24.5972 141.029 24.4967 140.698 24.2956C140.37 24.0915 140.113 23.8131 139.926 23.4605C139.739 23.1048 139.645 22.6996 139.645 22.245C139.645 21.8212 139.733 21.43 139.907 21.0712C140.082 20.7093 140.329 20.4201 140.647 20.2036C140.966 19.9871 141.341 19.8788 141.773 19.8788C142.211 19.8788 142.587 19.9762 142.899 20.1711C143.212 20.3629 143.452 20.6304 143.621 20.9737C143.792 21.3171 143.878 21.7099 143.878 22.1522C143.878 22.1924 143.877 22.2326 143.874 22.2728C143.871 22.313 143.866 22.347 143.86 22.3749H140.073V21.7671H143.102C143.095 21.6465 143.068 21.515 143.019 21.3727C142.97 21.2305 142.892 21.0975 142.784 20.9737C142.68 20.8469 142.545 20.7448 142.38 20.6675C142.218 20.5871 142.015 20.5469 141.773 20.5469C141.485 20.5469 141.236 20.6211 141.024 20.7696C140.816 20.9181 140.655 21.1206 140.542 21.3774C140.431 21.631 140.376 21.9202 140.376 22.245C140.376 22.6223 140.448 22.9363 140.592 23.1868C140.736 23.4373 140.922 23.6244 141.148 23.7482C141.375 23.8688 141.612 23.9291 141.861 23.9291C142.182 23.9291 142.447 23.8518 142.656 23.6971C142.867 23.5425 143.036 23.3523 143.161 23.1265L143.786 23.4327C143.612 23.7667 143.364 24.0451 143.042 24.2678C142.72 24.4874 142.317 24.5972 141.833 24.5972ZM144.732 24.458V20.018H145.43V20.7325H145.467C145.525 20.5624 145.622 20.4154 145.757 20.2917C145.892 20.168 146.046 20.0706 146.221 19.9994C146.396 19.9252 146.57 19.8881 146.745 19.8881C146.877 19.8881 146.979 19.8958 147.053 19.9113C147.129 19.9236 147.198 19.9438 147.26 19.9716V20.7742C147.168 20.7278 147.068 20.6938 146.961 20.6722C146.857 20.6474 146.749 20.635 146.639 20.635C146.428 20.635 146.232 20.6969 146.051 20.8206C145.873 20.9413 145.731 21.1036 145.624 21.3078C145.519 21.5088 145.467 21.7315 145.467 21.9759V24.458H144.732ZM149.329 24.5972C149.001 24.5972 148.712 24.5446 148.461 24.4395C148.212 24.3312 148.006 24.1858 147.84 24.0033C147.678 23.8178 147.557 23.6183 147.477 23.4048L148.13 23.1079C148.246 23.3739 148.413 23.5796 148.631 23.725C148.851 23.8703 149.103 23.943 149.384 23.943C149.654 23.943 149.879 23.8889 150.06 23.7806C150.241 23.6693 150.331 23.5054 150.331 23.2889C150.331 23.1559 150.293 23.0445 150.216 22.9548C150.143 22.8651 150.034 22.7893 149.89 22.7275C149.746 22.6625 149.571 22.6038 149.366 22.5512L148.828 22.412C148.623 22.3532 148.428 22.2728 148.245 22.1707C148.061 22.0656 147.912 21.931 147.799 21.7671C147.689 21.6001 147.633 21.3975 147.633 21.1593C147.633 20.8902 147.71 20.6598 147.863 20.468C148.019 20.2763 148.223 20.1309 148.474 20.0319C148.729 19.9298 149 19.8788 149.288 19.8788C149.542 19.8788 149.78 19.9159 150 19.9901C150.221 20.0613 150.414 20.168 150.579 20.3103C150.748 20.4526 150.875 20.6273 150.961 20.8345L150.322 21.1315C150.215 20.9119 150.068 20.7588 149.881 20.6722C149.697 20.5825 149.493 20.5376 149.27 20.5376C149.027 20.5376 148.818 20.5917 148.64 20.7C148.462 20.8083 148.373 20.9552 148.373 21.1408C148.373 21.3263 148.447 21.4655 148.594 21.5583C148.741 21.6511 148.92 21.7269 149.132 21.7856L149.77 21.948C150.202 22.0594 150.527 22.2249 150.745 22.4445C150.965 22.661 151.076 22.9254 151.076 23.2378C151.076 23.5162 150.998 23.7574 150.841 23.9616C150.685 24.1657 150.474 24.3235 150.207 24.4348C149.944 24.5431 149.651 24.5972 149.329 24.5972ZM151.9 24.458V20.018H152.636V24.458H151.9ZM152.263 19.1968C152.119 19.1968 151.995 19.1458 151.891 19.0437C151.79 18.9385 151.739 18.8133 151.739 18.6679C151.739 18.5163 151.79 18.3895 151.891 18.2874C151.995 18.1854 152.119 18.1343 152.263 18.1343C152.414 18.1343 152.539 18.1854 152.64 18.2874C152.741 18.3895 152.792 18.5163 152.792 18.6679C152.792 18.8133 152.741 18.9385 152.64 19.0437C152.539 19.1458 152.414 19.1968 152.263 19.1968ZM153.439 20.018H156.017V20.6861H153.439V20.018ZM154.207 23.2889V18.7607H154.937V23.1079C154.937 23.3399 154.985 23.5208 155.08 23.6507C155.175 23.7776 155.331 23.841 155.549 23.841C155.647 23.841 155.735 23.827 155.815 23.7992C155.898 23.7683 155.971 23.7327 156.036 23.6925V24.4163C155.959 24.4503 155.876 24.4766 155.788 24.4951C155.699 24.5168 155.579 24.5276 155.429 24.5276C155.061 24.5276 154.766 24.4194 154.542 24.2028C154.318 23.9832 154.207 23.6786 154.207 23.2889ZM158.189 26.1143C158.174 26.1545 158.154 26.1994 158.129 26.2489C158.108 26.2984 158.094 26.3277 158.088 26.337H157.329C157.363 26.2628 157.4 26.1808 157.44 26.0911C157.48 26.0014 157.529 25.8932 157.587 25.7664C157.62 25.689 157.651 25.6179 157.679 25.5529C157.709 25.4911 157.743 25.4199 157.78 25.3395C157.817 25.2622 157.861 25.1663 157.913 25.0519L158.52 23.725L158.681 23.3167L160.009 20.018H160.804L158.524 25.321C158.503 25.3735 158.468 25.4555 158.419 25.5669C158.37 25.6813 158.324 25.7911 158.281 25.8963C158.238 26.0045 158.207 26.0772 158.189 26.1143ZM158.354 24.2771L156.493 20.018H157.283L158.667 23.3167H158.736L158.354 24.2771Z" fill="#CCCCCC"/>
</svg>
